<svg id="Camada_1" data-name="Camada 1" xmlns="http://www.w3.org/2000/svg" viewBox="0 0 175.66 29.09"><defs><style>.cls-1{fill:#51571f;}</style></defs><title>detalhe</title><path class="cls-1" d="M138.52,44.86c-3.43,1-6.85,2.09-10.27,3.12a.52.52,0,0,0-.11-.24c-3.24-4-9.7-3.72-14.3-3.54a.47.47,0,0,0-.3.85,17.43,17.43,0,0,0,10.85,4.07q-4.14,1.2-8.32,2.24a.19.19,0,0,0-.16-.06h-1.56a.3.3,0,0,0-.08-.08,21.79,21.79,0,0,0-14.53-4.51.45.45,0,0,0-.29.81A23.82,23.82,0,0,0,113.18,52c-2.78.62-5.59,1.16-8.43,1.56a.49.49,0,0,0,0-.52c-1.48-2.14-5-3.25-7.37-4a32.73,32.73,0,0,0-9.41-1.68c-.34,0-.65.44-.36.71a20.5,20.5,0,0,0,15,5.82h0a84.42,84.42,0,0,1-12.41.58.41.41,0,0,0,0-.28c-2.79-6.12-9.34-8.49-15.3-10.43a.44.44,0,0,0-.48.7c3.55,4.11,7.82,8.11,13,9.88-1.26-.08-2.52-.19-3.77-.33a54.28,54.28,0,0,1-6.49-1.18s0,0,0,0a16.42,16.42,0,0,0-5.28-6.85c-1.17-1-4.34-3.63-5.91-2.51a.45.45,0,0,0,0,.62,31.86,31.86,0,0,0,8.72,8.12c-3-.84-5.84-1.84-8.79-2.92a.28.28,0,0,0-.21-.4l-.33,0a.35.35,0,0,0-.16-.4c-2.9-2-5.25-4.48-8.36-6.15-2.52-1.34-5.65-3.28-8.59-2.87a.42.42,0,0,0-.24.68A28,28,0,0,0,56,47,16.37,16.37,0,0,0,64.9,49.4a.26.26,0,0,0,.13.23c.76.42,1.54.81,2.33,1.17-.55,0-1.1.05-1.65.09a33.07,33.07,0,0,0-7.36,1.44.42.42,0,0,0-.06.81A15.09,15.09,0,0,0,66,54.33c1.6-.14,4.79-.3,5.77-1.87a59.74,59.74,0,0,0,8.36,1.91c-.31,0-.61,0-.91,0a19.3,19.3,0,0,0-3.69.59,19.86,19.86,0,0,0-6.3,3c-.34.23-.1.75.25.78A22.91,22.91,0,0,0,77.64,58c2-.53,5.13-1.34,6.25-3.12a0,0,0,0,0,0,0,79.1,79.1,0,0,0,11.52.4c-2.55.72-5.1,1.07-7.51,2.39a28.39,28.39,0,0,0-6.65,5.24.48.48,0,0,0,.26.81,15.41,15.41,0,0,0,10.66-2.68c1.93-1.25,5.27-3.33,5.72-5.89,1-.06,2-.13,3-.23,3.43-.33,6.85-.84,10.26-1.48v0c-4.9.6-9.19,5.13-11.08,9.4-.15.34.19.59.49.57,3-.2,5.39-1.92,7.48-3.95,1.64-1.6,3.87-3.69,3.69-6.15q4.68-.92,9.3-2.15a27.67,27.67,0,0,0-3.64,3.46c-1.25,1.43-3.17,3.43-3.32,5.41a.45.45,0,0,0,.53.48,12.64,12.64,0,0,0,7.12-5.08c.44-.65,2.32-3.8,1.68-4.88l.05,0,0,0c2.7-.77,5.39-1.61,8-2.5a27.06,27.06,0,0,0-5.73,9.56.44.44,0,0,0,.6.54,12.71,12.71,0,0,0,6.07-5.93c.33-.66,1.62-3.65,1.16-4.9,1.71-.6,3.42-1.22,5.1-1.87C139,45.3,138.84,44.77,138.52,44.86ZM96.41,49.69,76.09,45.11m-6.39.41-16.3-3.9M69.79,51.79m7.38,5.47,11.64,1,16.46-.92-4.12-9.72,17.69,6.77-3.73-9.28,14.38,7.07" transform="translate(-47.82 -34.77)"/><path class="cls-1" d="M133.23,46.49q2.6-.62,5.23-1.15c-.37-1,1.13-3.24,1.5-3.73a12.43,12.43,0,0,1,6.48-4.24c.35-.1.72.19.56.46a21.9,21.9,0,0,1-6.4,7.07c2.71-.54,5.45-1,8.2-1.47h0l0,0c-.56-.87,1.54-3.2,2-3.68a13.43,13.43,0,0,1,7.46-3.51c.29-.05.54.19.5.39-.3,1.53-2.36,3-3.7,4a27.49,27.49,0,0,1-3.88,2.47c3.13-.46,6.27-.84,9.42-1.12,0-1.92,2.38-3.41,4.13-4.55a13.88,13.88,0,0,1,7.74-2.62c.3,0,.63.22.45.48a15.92,15.92,0,0,1-11.72,6.62v0c3.45-.3,6.9-.49,10.35-.55,1,0,2,0,3,0,.63-2,4.1-3.37,6.12-4.23a19.27,19.27,0,0,1,10.81-1.44c.41.07.51.44.21.65a30.17,30.17,0,0,1-7,3.65,42.37,42.37,0,0,1-7.66,1.42,101.79,101.79,0,0,1,11.46,1v0c1.25-1.31,4.47-1.76,6.46-2.05a29.49,29.49,0,0,1,8.18,0c.35,0,.55.46.2.62a23.67,23.67,0,0,1-6.49,1.91,23.22,23.22,0,0,1-3.73.24c-.3,0-.6,0-.91,0a73.58,73.58,0,0,1,8.2,2c1.1-1.15,4.29-1.09,5.9-1.11a19,19,0,0,1,7.6,1.38c.38.16.29.56-.12.63a42,42,0,0,1-7.45.67c-.54,0-1.1,0-1.65,0,.77.33,1.52.67,2.24,1a.18.18,0,0,1,.12.19,19.59,19.59,0,0,1,8.7,2.36A26.16,26.16,0,0,1,223.41,56a.32.32,0,0,1-.28.51c-3,.14-6-1.55-8.37-2.73-3-1.47-5.14-3.57-7.9-5.26a.24.24,0,0,1-.13-.32l-.33,0c-.21,0-.27-.21-.18-.32-2.86-1-5.68-2-8.56-2.77a28.59,28.59,0,0,1,8.12,6.79.3.3,0,0,1-.1.48c-1.65.77-4.61-1.49-5.71-2.29-2-1.49-4.05-3.49-4.78-5.62v0c-2.07-.52-4.19-1-6.39-1.29-1.24-.19-2.49-.34-3.74-.48,5.08,1.68,9.06,5,12.31,8.42.27.28-.13.64-.53.51-5.8-1.85-12.16-4.07-14.52-9a.27.27,0,0,1,0-.23A109.52,109.52,0,0,0,170.43,42l-.55,0a23.3,23.3,0,0,1,14.53,5.38c.27.23-.07.56-.41.53a40.77,40.77,0,0,1-9.26-1.85c-2.28-.75-5.75-1.82-7.07-3.56a.32.32,0,0,1,0-.41c-2.86.15-5.7.4-8.52.71a28.06,28.06,0,0,1,13.38,4.3c.37.24.07.62-.35.61A25.7,25.7,0,0,1,158,43.42l-.07-.06c-.51,0-1-.07-1.55-.09a.25.25,0,0,1-.16-.05c-2.83.36-5.65.79-8.46,1.24a20.14,20.14,0,0,1,10.54,3.79c.35.26.1.66-.37.64-4.6-.13-11.06-.32-14-3.58a.33.33,0,0,1-.09-.19c-3.48.59-7,1.21-10.47,1.81C133.05,47,132.91,46.56,133.23,46.49Zm42.49-.83,19.94,4.74,3.78-1.82,14.26,3.77-6-7.85-12.21-3.57-11.54-1.44-16.48-.25M170.85,47m-17.17-6.28,3.06,7.4M142.9,41.82" transform="translate(-47.82 -34.77)"/></svg>