<svg id="Camada_1" data-name="Camada 1" xmlns="http://www.w3.org/2000/svg" xmlns:xlink="http://www.w3.org/1999/xlink" viewBox="0 0 587.14 230.47"><defs><style>.cls-1{font-size:210px;fill:#588068;font-family:Constantia;}.cls-2{fill:#51571f;}.cls-3{fill:#fff;}.cls-4{fill:url(#Gradiente_sem_nome_31);}</style><linearGradient id="Gradiente_sem_nome_31" x1="580.93" y1="59.69" x2="727.47" y2="59.69" gradientUnits="userSpaceOnUse"><stop offset="0" stop-color="#008c3e"/><stop offset="0.32" stop-color="#245a2f"/><stop offset="0.62" stop-color="#413322"/><stop offset="0.85" stop-color="#531a1b"/><stop offset="1" stop-color="#5a1118"/></linearGradient></defs><title>logo1</title><text class="cls-1" transform="translate(0 177.86)">botani</text><path class="cls-2" d="M266,223.73c-3.43,1-6.85,2.09-10.27,3.12a.43.43,0,0,0-.11-.24c-3.23-4-9.7-3.72-14.3-3.54a.47.47,0,0,0-.3.85A17.43,17.43,0,0,0,251.85,228c-2.76.8-5.53,1.56-8.32,2.24a.18.18,0,0,0-.16-.06c-.52,0-1,0-1.55,0l-.08-.07a21.77,21.77,0,0,0-14.54-4.52.45.45,0,0,0-.29.81,23.85,23.85,0,0,0,13.74,4.5c-2.79.63-5.6,1.16-8.44,1.57a.51.51,0,0,0,0-.53c-1.48-2.14-5-3.25-7.37-4a32.73,32.73,0,0,0-9.41-1.68c-.33,0-.65.44-.36.71a20.5,20.5,0,0,0,15,5.82c0,.06,0-.06,0,0a87.2,87.2,0,0,1-12.41.58.43.43,0,0,0,0-.29c-2.79-6.12-9.34-8.49-15.29-10.43a.45.45,0,0,0-.49.7c3.55,4.12,7.83,8.11,13.05,9.88-1.26-.08-2.52-.18-3.77-.33a54.28,54.28,0,0,1-6.49-1.18,0,0,0,0,0,0,0,16.39,16.39,0,0,0-5.28-6.86c-1.17-1-4.33-3.63-5.91-2.51a.44.44,0,0,0,0,.62,31.68,31.68,0,0,0,8.71,8.12c-3-.83-5.84-1.84-8.79-2.92a.27.27,0,0,0-.2-.4l-.34,0a.35.35,0,0,0-.16-.4c-2.9-1.95-5.24-4.48-8.36-6.15-2.51-1.34-5.65-3.27-8.59-2.87a.42.42,0,0,0-.24.68,28.17,28.17,0,0,0,8.1,7,16.41,16.41,0,0,0,8.89,2.38.24.24,0,0,0,.14.22c.75.42,1.53.81,2.33,1.17-.56,0-1.11.06-1.65.1a32.58,32.58,0,0,0-7.37,1.43.42.42,0,0,0-.06.81,15.1,15.1,0,0,0,7.71,1.19c1.6-.14,4.79-.3,5.77-1.87a58.49,58.49,0,0,0,8.37,1.91c-.31,0-.62,0-.91,0a19.28,19.28,0,0,0-3.7.59,20.08,20.08,0,0,0-6.3,2.95c-.34.23-.1.75.25.78a22.91,22.91,0,0,0,8.16-.66c2-.53,5.13-1.34,6.25-3.12a0,0,0,0,0,0,0,79.14,79.14,0,0,0,11.52.4c-2.54.72-5.1,1.07-7.51,2.4a28.5,28.5,0,0,0-6.65,5.23.48.48,0,0,0,.26.81,15.48,15.48,0,0,0,10.67-2.67c1.92-1.26,5.26-3.34,5.71-5.9,1-.06,2-.13,3-.23,3.43-.33,6.86-.83,10.27-1.48v0c-4.89.6-9.19,5.13-11.08,9.4-.15.34.19.59.49.57,3-.2,5.4-1.92,7.48-3.95,1.64-1.6,3.87-3.69,3.7-6.15,3.11-.61,6.22-1.33,9.3-2.15a27.13,27.13,0,0,0-3.65,3.46c-1.25,1.43-3.17,3.43-3.32,5.42a.45.45,0,0,0,.53.47,12.64,12.64,0,0,0,7.12-5.07c.44-.66,2.32-3.81,1.68-4.89a.1.1,0,0,0,0,0l0,0c2.71-.76,5.39-1.61,8-2.5a27.21,27.21,0,0,0-5.73,9.56.44.44,0,0,0,.6.54,12.71,12.71,0,0,0,6.07-5.93c.33-.66,1.62-3.65,1.16-4.9q2.58-.9,5.11-1.87C266.48,224.17,266.3,223.64,266,223.73Zm-42.1,4.83M203.55,224m-6.38.4-16.31-3.89,16.39,10.16,7.39,5.47,11.63,1,16.46-.93-4.12-9.72,17.7,6.78M242.57,224,257,231" transform="translate(-65 -16.38)"/><path class="cls-2" d="M260.69,225.36c1.73-.4,3.48-.79,5.23-1.15-.37-1,1.13-3.24,1.5-3.73a12.43,12.43,0,0,1,6.48-4.24c.35-.1.72.19.56.46a21.9,21.9,0,0,1-6.4,7.07c2.71-.54,5.45-1,8.2-1.47h0l.06,0c-.57-.87,1.53-3.2,2-3.68a13.57,13.57,0,0,1,7.46-3.51c.29,0,.54.19.5.4-.29,1.52-2.35,3-3.7,4a26.93,26.93,0,0,1-3.88,2.47q4.69-.69,9.43-1.12c0-1.92,2.38-3.41,4.12-4.55a14,14,0,0,1,7.75-2.62c.3,0,.62.22.45.48a15.94,15.94,0,0,1-11.73,6.62v0c3.44-.3,6.9-.49,10.34-.55,1,0,2,0,3,0,.63-2,4.11-3.37,6.12-4.23A19.28,19.28,0,0,1,319,214.54c.41.07.52.44.21.65a30,30,0,0,1-7,3.65c-2.5.89-5.07,1-7.66,1.42a99.33,99.33,0,0,1,11.46,1,0,0,0,0,1,0,0c1.25-1.31,4.47-1.75,6.46-2.05a29.49,29.49,0,0,1,8.18,0c.36,0,.56.46.2.62a23.67,23.67,0,0,1-6.49,1.91,23.22,23.22,0,0,1-3.73.24c-.3,0-.6,0-.91,0a76.61,76.61,0,0,1,8.21,2c1.09-1.15,4.28-1.08,5.89-1.1a18.8,18.8,0,0,1,7.6,1.37c.39.16.29.56-.12.63a42,42,0,0,1-7.45.67c-.54,0-1.09,0-1.65,0,.77.33,1.52.67,2.24,1a.2.2,0,0,1,.13.19,19.55,19.55,0,0,1,8.69,2.36,26.16,26.16,0,0,1,7.58,5.86c.16.19.05.49-.28.51-3,.14-5.95-1.55-8.37-2.73-3-1.47-5.14-3.57-7.89-5.26-.16-.09-.18-.21-.13-.31l-.34,0a.21.21,0,0,1-.18-.32c-2.86-1-5.68-2-8.55-2.77a28.71,28.71,0,0,1,8.11,6.79.3.3,0,0,1-.1.48c-1.64.77-4.61-1.49-5.71-2.29-2-1.49-4.05-3.49-4.78-5.62v0c-2.07-.52-4.19-1-6.39-1.3-1.24-.19-2.49-.34-3.74-.48,5.09,1.68,9.06,5,12.31,8.42.27.28-.13.64-.53.51-5.8-1.85-12.16-4.07-14.51-9a.29.29,0,0,1,0-.22,109.46,109.46,0,0,0-11.88-.3l-.54,0a23.36,23.36,0,0,1,14.52,5.38c.27.23-.07.56-.41.53A40.23,40.23,0,0,1,302.2,225c-2.28-.75-5.74-1.81-7.06-3.56a.32.32,0,0,1,0-.41c-2.86.15-5.7.4-8.52.71A28,28,0,0,1,300,226c.37.24.07.62-.35.61a25.7,25.7,0,0,1-14.18-4.35l-.07-.06c-.51,0-1-.07-1.55-.08a.34.34,0,0,1-.16-.06c-2.83.36-5.64.79-8.45,1.25a20,20,0,0,1,10.53,3.78c.35.26.1.66-.37.64-4.59-.13-11.06-.32-14-3.58a.31.31,0,0,1-.08-.19c-3.49.6-7,1.22-10.47,1.81C260.51,225.85,260.37,225.43,260.69,225.36Zm42.49-.83,19.94,4.74,3.78-1.82,14.26,3.77-6-7.85-12.22-3.57-11.54-1.44-16.48-.25,3.42,7.77-17.17-6.28,3.07,7.4-13.85-6.31" transform="translate(-65 -16.38)"/><rect class="cls-3" x="537.9" y="30.22" width="32.76" height="32.76"/><path class="cls-4" d="M582.16,99.2S621.78,84.51,638,47.83c0,0-16.28,27.48-41.42,40.81,0,0-6.74-23.14,5.23-33.59S646,38.23,651.37,16.38c0,0,9.1,78.08-52.12,77,0,0-11.76,7.74-17,9.59C582.3,103,579.31,101.41,582.16,99.2Z" transform="translate(-65 -16.38)"/></svg>